<svg width="40" height="40" viewBox="0 0 40 40" fill="none" xmlns="http://www.w3.org/2000/svg">
<path d="M39.598 10.3228L34.848 6.66529C34.5252 6.45822 34.1743 6.29869 33.806 6.19162C33.4392 6.07299 33.0574 6.00704 32.672 5.99576H19L20.602 15.9888H32.672C33 15.9888 33.41 15.9149 33.804 15.7929C34.198 15.671 34.578 15.5032 34.846 15.3213L39.596 11.6598C39.866 11.4779 40 11.2361 40 10.9923C40 10.7485 39.866 10.5066 39.598 10.3228ZM17 1.99854H15C14.7348 1.99854 14.4804 2.10382 14.2929 2.29122C14.1054 2.47863 14 2.73281 14 2.99784V9.99298H7.328C6.996 9.99298 6.588 10.0669 6.194 10.1908C5.798 10.3108 5.42 10.4766 5.152 10.6625L0.402 14.32C0.132 14.5018 0 14.7457 0 14.9895C0 15.2313 0.132 15.4732 0.402 15.659L5.152 19.3205C5.42 19.5024 5.798 19.6703 6.194 19.7902C6.588 19.9121 6.996 19.986 7.328 19.986H14V36.9742C14 37.2393 14.1054 37.4934 14.2929 37.6808C14.4804 37.8683 14.7348 37.9735 15 37.9735H17C17.2652 37.9735 17.5196 37.8683 17.7071 37.6808C17.8946 37.4934 18 37.2393 18 36.9742V2.99784C18 2.73281 17.8946 2.47863 17.7071 2.29122C17.5196 2.10382 17.2652 1.99854 17 1.99854Z" fill="white"/>
</svg>