<svg width="76" height="76" viewBox="0 0 76 76" fill="none" xmlns="http://www.w3.org/2000/svg">
<path d="M19.7915 11.0834C19.1616 11.0834 18.5575 11.3336 18.1121 11.779C17.6667 12.2244 17.4165 12.8285 17.4165 13.4584V64.9167H23.7498V56.2084C23.7498 54.0234 25.5232 52.25 27.7082 52.25H48.2915C50.4765 52.25 52.2498 54.0234 52.2498 56.2084V64.9167H58.5832V37.2084C58.5832 36.5785 58.333 35.9744 57.8876 35.529C57.4422 35.0836 56.8381 34.8334 56.2082 34.8334H49.8748C49.2449 34.8334 48.6409 34.5831 48.1955 34.1377C47.7501 33.6923 47.4998 33.0883 47.4998 32.4584V13.4584C47.4998 12.8285 47.2496 12.2244 46.8042 11.779C46.3588 11.3336 45.7547 11.0834 45.1248 11.0834H19.7915ZM28.4998 57V64.9167H35.6248V57H28.4998ZM40.3748 57V64.9167H47.4998V57H40.3748ZM60.9582 69.6667H15.0415C14.4116 69.6667 13.8075 69.4165 13.3621 68.9711C12.9167 68.5257 12.6665 67.9216 12.6665 67.2917V13.4584C12.6665 11.5687 13.4172 9.75643 14.7534 8.42024C16.0896 7.08404 17.9018 6.33337 19.7915 6.33337H45.1248C47.0145 6.33337 48.8268 7.08404 50.163 8.42024C51.4992 9.75643 52.2498 11.5687 52.2498 13.4584V30.0834H56.2082C57.1438 30.0834 58.0703 30.2677 58.9348 30.6257C59.7992 30.9838 60.5847 31.5086 61.2463 32.1702C61.9079 32.8319 62.4328 33.6173 62.7908 34.4818C63.1489 35.3462 63.3332 36.2727 63.3332 37.2084V67.2917C63.3332 67.9216 63.083 68.5257 62.6376 68.9711C62.1922 69.4165 61.5881 69.6667 60.9582 69.6667ZM23.7498 20.5834C23.7498 19.7435 24.0835 18.9381 24.6773 18.3442C25.2712 17.7503 26.0767 17.4167 26.9165 17.4167C27.7564 17.4167 28.5618 17.7503 29.1557 18.3442C29.7495 18.9381 30.0832 19.7435 30.0832 20.5834C30.0832 21.4232 29.7495 22.2287 29.1557 22.8225C28.5618 23.4164 27.7564 23.75 26.9165 23.75C26.0767 23.75 25.2712 23.4164 24.6773 22.8225C24.0835 22.2287 23.7498 21.4232 23.7498 20.5834ZM26.9165 39.5834C26.0767 39.5834 25.2712 39.917 24.6773 40.5109C24.0835 41.1047 23.7498 41.9102 23.7498 42.75C23.7498 43.5899 24.0835 44.3953 24.6773 44.9892C25.2712 45.5831 26.0767 45.9167 26.9165 45.9167C27.7564 45.9167 28.5618 45.5831 29.1557 44.9892C29.7495 44.3953 30.0832 43.5899 30.0832 42.75C30.0832 41.9102 29.7495 41.1047 29.1557 40.5109C28.5618 39.917 27.7564 39.5834 26.9165 39.5834ZM26.9165 28.5C26.0767 28.5 25.2712 28.8337 24.6773 29.4275C24.0835 30.0214 23.7498 30.8269 23.7498 31.6667C23.7498 32.5066 24.0835 33.312 24.6773 33.9059C25.2712 34.4997 26.0767 34.8334 26.9165 34.8334C27.7564 34.8334 28.5618 34.4997 29.1557 33.9059C29.7495 33.312 30.0832 32.5066 30.0832 31.6667C30.0832 30.8269 29.7495 30.0214 29.1557 29.4275C28.5618 28.8337 27.7564 28.5 26.9165 28.5ZM37.9998 17.4167C37.16 17.4167 36.3545 17.7503 35.7607 18.3442C35.1668 18.9381 34.8332 19.7435 34.8332 20.5834C34.8332 21.4232 35.1668 22.2287 35.7607 22.8225C36.3545 23.4164 37.16 23.75 37.9998 23.75C38.8397 23.75 39.6451 23.4164 40.239 22.8225C40.8329 22.2287 41.1665 21.4232 41.1665 20.5834C41.1665 19.7435 40.8329 18.9381 40.239 18.3442C39.6451 17.7503 38.8397 17.4167 37.9998 17.4167ZM37.9998 39.5834C37.16 39.5834 36.3545 39.917 35.7607 40.5109C35.1668 41.1047 34.8332 41.9102 34.8332 42.75C34.8332 43.5899 35.1668 44.3953 35.7607 44.9892C36.3545 45.5831 37.16 45.9167 37.9998 45.9167C38.8397 45.9167 39.6451 45.5831 40.239 44.9892C40.8329 44.3953 41.1665 43.5899 41.1665 42.75C41.1665 41.9102 40.8329 41.1047 40.239 40.5109C39.6451 39.917 38.8397 39.5834 37.9998 39.5834ZM49.0832 39.5834C48.2433 39.5834 47.4379 39.917 46.844 40.5109C46.2501 41.1047 45.9165 41.9102 45.9165 42.75C45.9165 43.5899 46.2501 44.3953 46.844 44.9892C47.4379 45.5831 48.2433 45.9167 49.0832 45.9167C49.923 45.9167 50.7285 45.5831 51.3223 44.9892C51.9162 44.3953 52.2498 43.5899 52.2498 42.75C52.2498 41.9102 51.9162 41.1047 51.3223 40.5109C50.7285 39.917 49.923 39.5834 49.0832 39.5834ZM37.9998 28.5C37.16 28.5 36.3545 28.8337 35.7607 29.4275C35.1668 30.0214 34.8332 30.8269 34.8332 31.6667C34.8332 32.5066 35.1668 33.312 35.7607 33.9059C36.3545 34.4997 37.16 34.8334 37.9998 34.8334C38.8397 34.8334 39.6451 34.4997 40.239 33.9059C40.8329 33.312 41.1665 32.5066 41.1665 31.6667C41.1665 30.8269 40.8329 30.0214 40.239 29.4275C39.6451 28.8337 38.8397 28.5 37.9998 28.5Z" fill="black"/>
</svg>