<svg width="73" height="73" viewBox="0 0 73 73" fill="none" xmlns="http://www.w3.org/2000/svg">
<path d="M65.2295 28.5299C64.2257 27.4834 63.1906 26.4026 62.8513 25.5842C62.549 24.8542 62.5262 23.3514 62.5062 22.0283C62.4635 19.1768 62.4093 15.6294 59.8885 13.1115C57.3677 10.5936 53.8232 10.5451 50.9717 10.4937C49.6486 10.4738 48.1458 10.451 47.4158 10.1487C46.5974 9.80937 45.5166 8.77426 44.4701 7.77051C42.4512 5.8343 39.9361 3.42188 36.5 3.42188C33.0639 3.42188 30.5488 5.8343 28.5299 7.77051C27.4834 8.77426 26.4026 9.80937 25.5842 10.1487C24.8542 10.451 23.3514 10.4738 22.0283 10.4937C19.1768 10.5508 15.6294 10.5907 13.1172 13.1172C10.605 15.6437 10.5508 19.1768 10.4937 22.0283C10.4738 23.3514 10.451 24.8542 10.1487 25.5842C9.80937 26.4026 8.77426 27.4834 7.77051 28.5299C5.8343 30.5488 3.42188 33.0781 3.42188 36.5C3.42188 39.9219 5.8343 42.4512 7.77051 44.4844C8.77426 45.5309 9.80937 46.6116 10.1487 47.43C10.451 48.16 10.4738 49.6628 10.4937 50.9859C10.5365 53.8375 10.5907 57.3848 13.1115 59.9028C15.6323 62.4207 19.1768 62.4692 22.0283 62.5205C23.3514 62.5405 24.8542 62.5633 25.5842 62.8655C26.4026 63.2049 27.4834 64.24 28.5299 65.2438C30.5488 67.1657 33.0781 69.5781 36.5 69.5781C39.9219 69.5781 42.4512 67.1657 44.4701 65.2295C45.5166 64.2257 46.5974 63.1906 47.4158 62.8513C48.1458 62.549 49.6486 62.5262 50.9717 62.5062C53.8232 62.4635 57.3706 62.4093 59.8885 59.8885C62.4064 57.3677 62.4549 53.8232 62.5062 50.9717C62.5262 49.6486 62.549 48.1458 62.8513 47.4158C63.1906 46.5974 64.2257 45.5166 65.2295 44.4701C67.1657 42.4512 69.5781 39.9361 69.5781 36.5C69.5781 33.0639 67.1657 30.5488 65.2295 28.5299ZM60.2906 39.7337C58.9161 41.1595 57.3592 42.7906 56.5294 44.798C55.7252 46.7371 55.6939 48.8359 55.6739 50.869C55.6511 52.3975 55.6197 54.4934 55.0608 55.0494C54.5019 55.6055 52.4089 55.6397 50.8804 55.6625C48.8473 55.6939 46.7485 55.7252 44.8095 56.518C42.8134 57.3478 41.1794 58.9047 39.7451 60.2792C38.7185 61.263 37.1844 62.7344 36.5 62.7344C35.8156 62.7344 34.2815 61.263 33.2663 60.2906C31.8405 58.9161 30.2095 57.3592 28.202 56.5294C26.2629 55.7252 24.1641 55.6939 22.131 55.6739C20.6025 55.6511 18.5066 55.6197 17.9506 55.0608C17.3945 54.5019 17.3603 52.4089 17.3375 50.8804C17.3061 48.8473 17.2748 46.7485 16.482 44.8095C15.6522 42.8134 14.0953 41.1794 12.7208 39.7451C11.737 38.7185 10.2656 37.1844 10.2656 36.5C10.2656 35.8156 11.737 34.2815 12.7094 33.2663C14.0839 31.8405 15.6408 30.2095 16.4706 28.202C17.2748 26.2629 17.3061 24.1641 17.3261 22.131C17.3603 20.6025 17.3945 18.5066 17.9648 17.9648C18.5352 17.423 20.6168 17.3746 22.1452 17.3518C24.1784 17.3204 26.2771 17.289 28.2162 16.4963C30.2123 15.6665 31.8463 14.1095 33.2806 12.7351C34.2815 11.737 35.8156 10.2656 36.5 10.2656C37.1844 10.2656 38.7185 11.737 39.7337 12.7094C41.1595 14.0839 42.7906 15.6408 44.798 16.4706C46.7371 17.2748 48.8359 17.3061 50.869 17.3261C52.3975 17.3489 54.4934 17.3803 55.0494 17.9392C55.6055 18.4981 55.6397 20.5911 55.6625 22.1196C55.6939 24.1527 55.7252 26.2515 56.518 28.1905C57.3478 30.1866 58.9047 31.8206 60.2792 33.2549C61.2516 34.2701 62.723 35.8042 62.723 36.4886C62.723 37.173 61.263 38.7185 60.2906 39.7337ZM50.3272 27.2353C50.6462 27.5532 50.8994 27.9309 51.0721 28.3469C51.2448 28.7628 51.3337 29.2087 51.3337 29.6591C51.3337 30.1095 51.2448 30.5554 51.0721 30.9713C50.8994 31.3873 50.6462 31.765 50.3272 32.0829L34.3585 48.0517C34.0406 48.3707 33.6628 48.6238 33.2469 48.7965C32.831 48.9692 32.385 49.0581 31.9346 49.0581C31.4843 49.0581 31.0383 48.9692 30.6224 48.7965C30.2065 48.6238 29.8287 48.3707 29.5108 48.0517L22.6671 41.2079C22.3488 40.8896 22.0963 40.5117 21.924 40.0959C21.7518 39.68 21.6631 39.2342 21.6631 38.7841C21.6631 38.334 21.7518 37.8882 21.924 37.4723C22.0963 37.0565 22.3488 36.6786 22.6671 36.3603C22.9854 36.042 23.3633 35.7895 23.7791 35.6172C24.195 35.445 24.6408 35.3563 25.0909 35.3563C25.541 35.3563 25.9868 35.445 26.4027 35.6172C26.8185 35.7895 27.1964 36.042 27.5147 36.3603L31.9375 40.7773L45.4853 27.2267C45.8036 26.9091 46.1815 26.6574 46.5972 26.4859C47.0129 26.3145 47.4583 26.2266 47.908 26.2274C48.3577 26.2282 48.8028 26.3176 49.2179 26.4906C49.633 26.6635 50.01 26.9166 50.3272 27.2353Z" fill="black"/>
</svg>