<svg width="12" height="12" viewBox="0 0 12 12" fill="none" xmlns="http://www.w3.org/2000/svg">
<path d="M4.99905 0.456055L0.695883 2.82043H1.57186L4.70051 1.10138L4.32975 2.82043H4.76123L5.03273 1.56181L5.35355 2.82041H5.78888L5.33309 1.03227L10.0895 2.82043H11.2883L4.99905 0.456055ZM0.585938 3.2423V3.94543H11.4141V3.2423H0.585938ZM1.33594 4.3673V5.07043H2.78906V4.3673H1.33594ZM4.71094 4.3673V5.44543H5.41406V4.3673H4.71094ZM5.83594 4.3673V5.44543H6.28765L6.53906 5.19402V4.3673H5.83594ZM10.2891 4.3673V7.68856C10.3563 7.66215 10.4278 7.64858 10.5 7.64855C10.5742 7.64855 10.6453 7.66285 10.7109 7.68856V4.3673H10.2891ZM4.71094 5.8673V11.5392H5.41406V5.8673H4.71094ZM10.5 8.07043C10.4069 8.07043 10.3359 8.14137 10.3359 8.23449C10.3359 8.32761 10.4069 8.39855 10.5 8.39855C10.5931 8.39855 10.6641 8.32761 10.6641 8.23449C10.6641 8.14137 10.5931 8.07043 10.5 8.07043ZM10.022 8.57117L9.63717 9.14855H10.1441L10.3725 8.80606C10.2291 8.77362 10.1049 8.68794 10.022 8.57117ZM10.978 8.57117C10.8951 8.68791 10.7709 8.77362 10.6275 8.80606L10.8559 9.14855H11.3628L10.978 8.57117ZM9.58594 9.57043V10.2736H11.4141V9.57043H9.58594ZM4.28906 10.1446L2.87344 11.2064L3.12656 11.5439L4.28906 10.672V10.1446ZM5.83594 10.1446V10.672L6.99844 11.5439L7.25156 11.2064L5.83594 10.1446Z" fill="white"/>
</svg>