<svg width="12" height="12" viewBox="0 0 12 12" fill="none" xmlns="http://www.w3.org/2000/svg">
<g clip-path="url(#clip0_76_115)">
<path fill-rule="evenodd" clip-rule="evenodd" d="M5.41102 1.19646C5.48122 1.10742 5.57069 1.03544 5.67271 0.98596C5.77473 0.936475 5.88664 0.910767 6.00002 0.910767C6.11341 0.910767 6.22532 0.936475 6.32734 0.98596C6.42936 1.03544 6.51883 1.10742 6.58902 1.19646L9.89052 5.38046C10.0298 5.55693 10.1055 5.77517 10.1055 5.99996C10.1055 6.22476 10.0298 6.443 9.89052 6.61946L6.58902 10.8035C6.51883 10.8925 6.42936 10.9645 6.32734 11.014C6.22532 11.0634 6.11341 11.0892 6.00002 11.0892C5.88664 11.0892 5.77473 11.0634 5.67271 11.014C5.57069 10.9645 5.48122 10.8925 5.41102 10.8035L2.11002 6.61996C1.97076 6.4435 1.89502 6.22526 1.89502 6.00046C1.89502 5.77567 1.97076 5.55743 2.11002 5.38096L5.41152 1.19696L5.41102 1.19646Z" fill="#41FFFF"/>
</g>
<defs>
<clipPath id="clip0_76_115">
<rect width="12" height="12" fill="white"/>
</clipPath>
</defs>
</svg>
