<svg width="6" height="8" viewBox="0 0 6 8" fill="none" xmlns="http://www.w3.org/2000/svg">
<path d="M3.51408 3.37573V2.16253C3.90972 2.25937 4.29648 2.44381 4.61292 2.73397L4.61424 2.73217C4.63788 2.75101 4.66656 2.76397 4.6992 2.76397C4.74216 2.76397 4.779 2.74321 4.80444 2.71261L4.80624 2.71297L5.31768 1.99201L5.31648 1.99141C5.33748 1.96717 5.3514 1.93645 5.3514 1.90189C5.3514 1.86109 5.33304 1.82533 5.30496 1.80001C4.8306 1.36189 4.22496 1.09885 3.51408 1.01977V0.323052C3.51408 0.246612 3.45204 0.184692 3.3756 0.184692H2.82624C2.7498 0.184692 2.68788 0.246612 2.68788 0.323052V1.00213C1.50108 1.12513 0.797882 1.88125 0.797882 2.76913C0.797882 3.96469 1.78248 4.30753 2.68788 4.52737V5.88985C2.10648 5.78569 1.62864 5.48437 1.30356 5.14705C1.30128 5.14453 1.29888 5.14237 1.29636 5.14009L1.29012 5.13397L1.28916 5.13529C1.2651 5.11466 1.23458 5.10307 1.20288 5.10253C1.17819 5.10276 1.15403 5.10965 1.13294 5.1225C1.11186 5.13534 1.09464 5.15366 1.08312 5.17549L1.08144 5.17525L0.586442 5.91013L0.587042 5.91133C0.564796 5.93597 0.552332 5.9679 0.552002 6.00109C0.552002 6.04513 0.573842 6.08257 0.605762 6.10789L0.604442 6.10981C1.08792 6.59329 1.76484 6.94489 2.68788 7.02409V7.67689C2.68788 7.75333 2.7498 7.81525 2.82624 7.81525H3.3756C3.45204 7.81525 3.51396 7.75321 3.51396 7.67689L3.51408 7.02397C4.80636 6.89197 5.44812 6.13621 5.44812 5.16025C5.44812 3.95605 4.42836 3.60421 3.51408 3.37573ZM2.68776 3.17341C2.3274 3.05929 2.08116 2.92729 2.08116 2.67229C2.08116 2.37349 2.301 2.16253 2.68776 2.10973V3.17341ZM3.51408 5.90749V4.72957C3.90096 4.85257 4.17348 4.99345 4.17348 5.28337C4.17348 5.56477 3.9624 5.81953 3.51408 5.90749Z" fill="white"/>
</svg>