<svg width="73" height="73" viewBox="0 0 73 73" fill="none" xmlns="http://www.w3.org/2000/svg">
<g clip-path="url(#clip0_141_59)">
<path d="M64.889 12.1667H8.11122C7.03562 12.1667 6.00407 12.594 5.24351 13.3546C4.48294 14.1152 4.05566 15.1467 4.05566 16.2223V56.7779C4.05566 57.8535 4.48294 58.885 5.24351 59.6456C6.00407 60.4061 7.03562 60.8334 8.11122 60.8334H38.5279L39.6837 59.414L41.5696 57.1023L41.3871 56.7779H8.11122V16.2223H64.889V33.5801C66.4295 34.5773 67.799 35.8167 68.9446 37.2504V16.2223C68.9446 15.1467 68.5173 14.1152 67.7567 13.3546C66.9962 12.594 65.9646 12.1667 64.889 12.1667Z" fill="black"/>
<path d="M14.1943 24.3333H48.6666V27.5777H14.1943V24.3333Z" fill="black"/>
<path d="M14.1943 32.4443H36.4999V35.6888H14.1943V32.4443Z" fill="black"/>
<path d="M14.1943 46.6389H34.4721V49.8834H14.1943V46.6389Z" fill="black"/>
<path d="M55.6827 34.9386C53.0878 34.918 50.547 35.6807 48.3925 37.127C46.2379 38.5732 44.5698 40.6358 43.606 43.0452C42.6423 45.4546 42.4278 48.0986 42.9905 50.6318C43.5533 53.165 44.8672 55.4695 46.7604 57.2442L42.8266 62.05L44.6516 69.3703L52.0732 60.3264C54.4225 61.0211 56.9226 61.0211 59.2718 60.3264L66.6935 69.3703L68.5185 62.05L64.5846 57.2442C66.4779 55.4695 67.7917 53.165 68.3545 50.6318C68.9173 48.0986 68.7028 45.4546 67.7391 43.0452C66.7753 40.6358 65.1071 38.5732 62.9526 37.127C60.798 35.6807 58.2573 34.918 55.6624 34.9386H55.6827ZM55.6827 56.5953C53.9595 56.5713 52.2819 56.0384 50.8607 55.0636C49.4396 54.0888 48.3384 52.7156 47.6955 51.1167C47.0526 49.5178 46.8968 47.7644 47.2476 46.0772C47.5985 44.3899 48.4403 42.8441 49.6673 41.6339C50.8943 40.4238 52.4516 39.6034 54.1436 39.276C55.8355 38.9485 57.5865 39.1285 59.1764 39.7934C60.7663 40.4583 62.1241 41.5785 63.0792 43.0129C64.0342 44.4474 64.5439 46.1322 64.5441 47.8556C64.5226 50.188 63.5783 52.4169 61.9176 54.0548C60.2569 55.6927 58.0151 56.6061 55.6827 56.5953Z" fill="black"/>
</g>
<defs>
<clipPath id="clip0_141_59">
<rect width="73" height="73" fill="white"/>
</clipPath>
</defs>
</svg>