<svg width="256" height="256" viewBox="0 0 256 256" fill="none" xmlns="http://www.w3.org/2000/svg">
<path d="M136.37 187.53C137.489 188.645 138.376 189.97 138.982 191.428C139.588 192.887 139.899 194.451 139.899 196.03C139.899 197.609 139.588 199.173 138.982 200.632C138.376 202.09 137.489 203.415 136.37 204.53L130.43 210.47C119.174 221.726 103.908 228.049 87.99 228.049C72.0719 228.049 56.8058 221.726 45.55 210.47C34.2942 199.214 27.9708 183.948 27.9708 168.03C27.9708 152.112 34.2942 136.846 45.55 125.59L69.67 101.48C80.4848 90.6384 95.0358 84.3423 110.342 83.8812C125.649 83.4201 140.552 88.829 152 99C153.182 100.051 154.145 101.324 154.835 102.747C155.525 104.169 155.928 105.714 156.021 107.293C156.114 108.871 155.895 110.453 155.376 111.947C154.858 113.441 154.051 114.818 153 116C151.949 117.182 150.676 118.145 149.253 118.835C147.831 119.525 146.286 119.928 144.707 120.021C143.128 120.114 141.547 119.895 140.053 119.376C138.559 118.858 137.182 118.051 136 117C129.135 110.903 120.2 107.66 111.023 107.933C101.846 108.206 93.1199 111.976 86.63 118.47L62.53 142.55C55.7776 149.302 51.9841 158.461 51.9841 168.01C51.9841 177.559 55.7776 186.718 62.53 193.47C69.2824 200.222 78.4406 204.016 87.99 204.016C97.5393 204.016 106.698 200.222 113.45 193.47L119.39 187.53C120.504 186.414 121.828 185.529 123.285 184.925C124.741 184.321 126.303 184.011 127.88 184.011C129.457 184.011 131.018 184.321 132.475 184.925C133.932 185.529 135.256 186.414 136.37 187.53ZM210.45 45.53C199.185 34.2915 183.922 27.98 168.01 27.98C152.098 27.98 136.835 34.2915 125.57 45.53L119.63 51.47C117.376 53.7243 116.109 56.7819 116.109 59.97C116.109 63.1581 117.376 66.2157 119.63 68.47C121.884 70.7243 124.942 71.9908 128.13 71.9908C131.318 71.9908 134.376 70.7243 136.63 68.47L142.57 62.53C149.322 55.7776 158.481 51.9841 168.03 51.9841C177.579 51.9841 186.738 55.7776 193.49 62.53C200.242 69.2824 204.036 78.4407 204.036 87.99C204.036 97.5394 200.242 106.698 193.49 113.45L169.38 137.57C162.884 144.062 154.153 147.826 144.974 148.091C135.794 148.357 126.86 145.105 120 139C118.818 137.949 117.441 137.142 115.947 136.624C114.453 136.105 112.871 135.886 111.293 135.979C109.714 136.072 108.169 136.475 106.747 137.165C105.324 137.855 104.051 138.818 103 140C101.949 141.182 101.142 142.559 100.624 144.053C100.105 145.547 99.8863 147.129 99.9792 148.707C100.072 150.286 100.475 151.831 101.165 153.253C101.855 154.676 102.818 155.949 104 157C115.44 167.169 130.333 172.581 145.633 172.129C160.932 171.678 175.48 165.396 186.3 154.57L210.42 130.46C221.672 119.198 227.994 103.931 228 88.0112C228.006 72.0915 221.694 56.8202 210.45 45.55V45.53Z" fill="white"/>
</svg>